# xmcd
#
# Track frame offsets:
#	150
#	12267
#	23325
#	34350
#	49267
#	58302
#	70090
#	82662
#	93335
#	106310
#	118582
#	129247
#
# Disc length: 1904 seconds
#
# Revision: 1
# Processed by: cddbd v1.4PL0 Copyright (c) Steve Scherf et al.
# Submitted via: CDmax 2.0
#
DISCID=90076e0c
DTITLE=Alska's Hobo Jim - A Collection
DYEAR=1994
DGENRE=Country
TTITLE0=Where Legends Are Born
TTITLE1=Miner's Dream
TTITLE2=The Iditarod Trail Song
TTITLE3=Wild And Free
TTITLE4=Backwoods Girl
TTITLE5=The Coyote And I
TTITLE6=Off To Dutch Harbor
TTITLE7=Cannery Call
TTITLE8=The F/V Mary Ann
TTITLE9=On A Yankee Whaler
TTITLE10=The Great Alaska Railroad
TTITLE11=Athabascan Fiddler
EXTD=
EXTT0=
EXTT1=
EXTT2=
EXTT3=
EXTT4=
EXTT5=
EXTT6=
EXTT7=
EXTT8=
EXTT9=
EXTT10=
EXTT11=
PLAYORDER=
